<svg version="1.1" id="cta__social-image-svg" xmlns="http://www.w3.org/2000/svg" xmlns:xlink="http://www.w3.org/1999/xlink" x="0px" y="0px"
	 viewBox="0 0 25.5 16" style="enable-background:new 0 0 25.5 16;" xml:space="preserve">
<style type="text/css">
	.cta__social-image-svg{fill:#226089;}
</style>
<g transform="translate(0 -95.979)">
	<g transform="translate(0 95.979)">
		<g transform="translate(0 0)">
			<path class="cta__social-image-svg" d="M10.5,7.2C11,7,11.4,6.7,11.7,6.4c0.5-0.6,0.8-1.4,0.7-2.2c0-0.8-0.2-1.6-0.7-2.3c-1-1.2-2.5-1.8-4-1.6H0.3
				v15.2h7c0.7,0,1.5-0.1,2.2-0.2c0.6-0.1,1.2-0.4,1.7-0.8c0.4-0.3,0.8-0.7,1.1-1.2c0.5-0.7,0.7-1.6,0.7-2.4s-0.2-1.6-0.6-2.2
				C11.9,7.9,11.3,7.5,10.5,7.2z M3.3,2.8h3.4c0.6,0,1.2,0.1,1.8,0.2c0.6,0.2,0.9,0.8,0.8,1.4c0.1,0.5-0.2,1-0.6,1.3
				C8.2,6.1,7.6,6.2,7.1,6.2H3.3V2.8z M8.6,12.5c-0.5,0.2-1,0.3-1.6,0.3H3.3V8.7h3.8c0.5,0,1.1,0.1,1.5,0.3c0.6,0.3,1,0.9,1,1.6
				C9.7,11.4,9.3,12.1,8.6,12.5z"/>
			<rect x="16.2" y="0.9" class="cta__social-image-svg" width="6.6" height="1.9"/>
			<path class="cta__social-image-svg" d="M25.1,8.4C25,7.5,24.7,6.7,24.2,6s-1.2-1.3-2-1.7c-0.8-0.4-1.8-0.5-2.7-0.5c-1.5-0.1-3,0.5-4.1,1.6
				c-1.1,1.2-1.7,2.8-1.6,4.5c-0.2,1.7,0.5,3.4,1.7,4.5c1.1,0.9,2.6,1.4,4,1.4c1.6,0.1,3.2-0.5,4.3-1.6c0.6-0.5,1-1.3,1.1-2h-3
				c-0.1,0.3-0.4,0.6-0.6,0.8c-0.5,0.4-1.1,0.5-1.7,0.5s-1.1-0.1-1.6-0.4c-0.8-0.5-1.2-1.4-1.2-2.4h8.3C25.3,9.9,25.2,9.1,25.1,8.4z
				 M17,8.7C17.1,8,17.4,7.4,17.8,7c0.5-0.5,1.1-0.7,1.8-0.7c0.6,0,1.3,0.2,1.8,0.6c0.5,0.5,0.8,1.1,0.8,1.8H17z"/>
		</g>
	</g>
</g>
</svg>
