<?xml version="1.0" encoding="utf-8"?>
<!-- Generator: Adobe Illustrator 24.1.1, SVG Export Plug-In . SVG Version: 6.00 Build 0)  -->
<svg version="1.1" id="Capa_1" xmlns="http://www.w3.org/2000/svg" xmlns:xlink="http://www.w3.org/1999/xlink" x="0px" y="0px"
	 viewBox="0 0 510.2 510.2" style="enable-background:new 0 0 510.2 510.2;" xml:space="preserve">
<style type="text/css">
	.st0{fill:#A8C6D9;}
</style>
<g>
	<g>
		<g>
			<path class="st0" d="M255.2,10.3c-9.5,0-17.1,7.7-17.1,17.2v312.3l-77.6-77.6c-6.7-6.7-17.6-6.7-24.3,0c-6.7,6.7-6.7,17.6,0,24.3
				l106.9,106.9c3.2,3.2,7.6,5,12.1,5c4.6,0,8.9-1.8,12.1-5l106.9-107c6.7-6.7,6.7-17.6,0-24.3c-6.7-6.7-17.6-6.7-24.3,0l-77.6,77.6
				V27.5C272.4,18,264.7,10.3,255.2,10.3z"/>
			<path class="st0" d="M466.1,482.9c0-9.5-7.7-17.2-17.2-17.2H61.4c-9.5,0-17.2,7.7-17.2,17.2S51.9,500,61.4,500H449
				C458.5,500.1,466.1,492.4,466.1,482.9z"/>
		</g>
	</g>
</g>
</svg>
