<?xml version="1.0" encoding="utf-8"?>
<!-- Generator: Adobe Illustrator 24.1.1, SVG Export Plug-In . SVG Version: 6.00 Build 0)  -->
<svg version="1.1" id="Layer_1" xmlns="http://www.w3.org/2000/svg" xmlns:xlink="http://www.w3.org/1999/xlink" x="0px" y="0px"
	 viewBox="0 0 25.5 25.5" style="enable-background:new 0 0 25.5 25.5;" xml:space="preserve">
<style type="text/css">
	.st0{fill:#226089;}
</style>
<g transform="translate(-0.449)">
	<path class="st0" d="M25.6,7.6c0-1-0.2-2.1-0.6-3c-0.7-1.7-2-3-3.7-3.7c-1-0.4-2-0.6-3-0.6c-1.3-0.1-1.8-0.1-5.2-0.1
		s-3.8,0-5.2,0.1C7,0.3,6,0.5,5,0.9C4.2,1.2,3.4,1.7,2.8,2.4C2.2,3,1.7,3.7,1.4,4.6c-0.4,1-0.6,2-0.6,3c-0.1,1.3-0.1,1.8-0.1,5.2
		s0,3.8,0.1,5.2c0,1,0.2,2.1,0.6,3c0.7,1.7,2,3,3.7,3.7c1,0.4,2,0.6,3,0.6c1.3,0.1,1.8,0.1,5.2,0.1s3.8,0,5.2-0.1c1,0,2.1-0.2,3-0.6
		c1.7-0.6,3-2,3.7-3.7c0.4-1,0.6-2,0.6-3c0.1-1.3,0.1-1.8,0.1-5.2S25.7,8.9,25.6,7.6L25.6,7.6z M23.4,17.8c0,0.8-0.2,1.6-0.4,2.3
		c-0.4,1.1-1.3,2-2.4,2.4c-0.7,0.3-1.5,0.4-2.3,0.4C16.9,23,16.5,23,13.2,23s-3.7,0-5.1-0.1c-0.8,0-1.6-0.2-2.3-0.4
		c-0.5-0.2-1-0.5-1.4-0.9s-0.7-0.9-0.9-1.4C3.2,19.4,3,18.6,3,17.8c0-1.3,0-1.7,0-5S3,9,3,7.7c0-0.8,0.2-1.6,0.4-2.3
		c0.3-0.5,0.6-1,1-1.4c0.4-0.5,0.9-0.8,1.4-1c0.7-0.3,1.5-0.4,2.3-0.4c1.3-0.1,1.7-0.1,5.1-0.1s3.7,0,5.1,0.1c0.8,0,1.6,0.2,2.3,0.4
		c0.5,0.2,1,0.5,1.4,0.9s0.7,0.9,0.9,1.4c0.3,0.7,0.4,1.5,0.4,2.3c0.1,1.3,0.1,1.7,0.1,5.1S23.4,16.5,23.4,17.8z"/>
	<path class="st0" d="M13.2,6.3c-3.5,0-6.4,2.9-6.4,6.4s2.9,6.4,6.4,6.4s6.4-2.9,6.4-6.4S16.7,6.3,13.2,6.3z M13.2,16.9
		C10.9,16.9,9,15,9,12.7s1.9-4.2,4.2-4.2s4.2,1.9,4.2,4.2C17.4,15.1,15.5,16.9,13.2,16.9z"/>
	<path class="st0" d="M21.4,6.1c0,0.8-0.7,1.5-1.5,1.5s-1.5-0.7-1.5-1.5s0.7-1.5,1.5-1.5l0,0C20.7,4.6,21.4,5.2,21.4,6.1z"/>
</g>
</svg>
