<?xml version="1.0" encoding="utf-8"?>
<!-- Generator: Adobe Illustrator 24.1.1, SVG Export Plug-In . SVG Version: 6.00 Build 0)  -->
<svg version="1.1" id="Layer_1" xmlns="http://www.w3.org/2000/svg" xmlns:xlink="http://www.w3.org/1999/xlink" x="0px" y="0px"
	 viewBox="0 0 25.5 25.5" style="enable-background:new 0 0 25.5 25.5;" xml:space="preserve">
<style type="text/css">
	.st0{fill:#226089;}
</style>
<path class="st0" d="M25.3,25.2L25.3,25.2V16c0-4.5-1-7.9-6.2-7.9c-2-0.1-3.9,1-4.9,2.7h-0.1V8.6h-5v16.7h5.2V17
	c0-2.2,0.4-4.3,3.1-4.3s2.7,2.5,2.7,4.4v8.1H25.3z M0.7,8.6h5.2v16.7H0.7V8.6z M3.3,0.2c-1.7,0-3,1.3-3,3s1.3,3,3,3s3-1.3,3-3l0,0
	C6.3,1.6,4.9,0.3,3.3,0.2z"/>
</svg>
