<?xml version="1.0" encoding="utf-8"?>
<!-- Generator: Adobe Illustrator 24.1.1, SVG Export Plug-In . SVG Version: 6.00 Build 0)  -->
<svg version="1.1" id="Layer_1" xmlns="http://www.w3.org/2000/svg" xmlns:xlink="http://www.w3.org/1999/xlink" x="0px" y="0px"
	 viewBox="0 0 101 115" style="enable-background:new 0 0 101 115;" xml:space="preserve">
<style type="text/css">
	.st0{fill:#226089;}
</style>
<g transform="translate(-17.054 -15.485)">
	<g transform="translate(17.054 15.485)">
		<path class="st0" d="M39.5,47.9L23.8,20.8V9.6l15.6-9V47.9z"/>
		<path class="st0" d="M23.8,64.6l15.6,27.1v22.8l-9.7-5.6l-6-3.5V64.6z"/>
		<path class="st0" d="M50.5,73.2l8-13.8v31.3l-8,13.8l-9-15.6l-1.9-3.4v0L23.8,58.4v0L16.1,45v56l-15.6-9V23.1l2.2-1.3L16.1,14
			l0.1-0.1L23.8,27v0l15.6,27.1v0L50.5,73.2z"/>
		<path class="st0" d="M61.5,0.6l15.6,9v95.7l-6.1,3.5l-9.6,5.5V0.6z"/>
		<path class="st0" d="M100.5,23.1v68.8l-15.6,9V44.9l-4.6,7.9V21.5l4.4-7.6l0.2,0.1l13.3,7.7L100.5,23.1z"/>
	</g>
</g>
</svg>
