<?xml version="1.0" encoding="utf-8"?>
<!-- Generator: Adobe Illustrator 24.1.1, SVG Export Plug-In . SVG Version: 6.00 Build 0)  -->
<svg version="1.1" id="Layer_1" xmlns="http://www.w3.org/2000/svg" xmlns:xlink="http://www.w3.org/1999/xlink" x="0px" y="0px"
	 viewBox="0 0 101 91.2" style="enable-background:new 0 0 101 91.2;" xml:space="preserve">
<style type="text/css">
	.st0{fill:#23608A;}
</style>
<g>
	<path class="st0" d="M90.8,0.5H10.2c-5.3,0-9.7,4.3-9.7,9.7s4.3,9.7,9.7,9.7h80.6c5.3,0,9.7-4.3,9.7-9.7S96.2,0.5,90.8,0.5
		L90.8,0.5z"/>
	<path class="st0" d="M90.8,35.9H10.2c-5.3,0-9.7,4.3-9.7,9.7s4.3,9.7,9.7,9.7h80.6c5.3,0,9.7-4.3,9.7-9.7S96.2,35.9,90.8,35.9
		L90.8,35.9z"/>
	<path class="st0" d="M90.8,71.4H10.2c-5.3,0-9.7,4.3-9.7,9.7s4.3,9.7,9.7,9.7h80.6c5.3,0,9.7-4.3,9.7-9.7S96.2,71.4,90.8,71.4
		L90.8,71.4z"/>
</g>
</svg>
