<?xml version="1.0" encoding="utf-8"?>
<!-- Generator: Adobe Illustrator 24.1.1, SVG Export Plug-In . SVG Version: 6.00 Build 0)  -->
<svg version="1.1" id="Layer_1" xmlns="http://www.w3.org/2000/svg" xmlns:xlink="http://www.w3.org/1999/xlink" x="0px" y="0px"
	 viewBox="0 0 25.5 18.2" style="enable-background:new 0 0 25.5 18.2;" xml:space="preserve">
<style type="text/css">
	.st0{fill:#226089;}
</style>
<path class="st0" d="M19.6,1.7c-2.7,0-5,2-5.5,4.6c-1.2-1.9-2.2-4-2.9-6.1H8.4v7.5c0,1.5-1.2,2.7-2.7,2.6c-1.4,0-2.6-1.2-2.6-2.6
	V0.2H0.3v7.5c0,3,2.4,5.5,5.4,5.6c3,0,5.5-2.4,5.6-5.4c0-0.1,0-0.1,0-0.2V6.4c0.6,1.2,1.3,2.3,2.1,3.4L11.6,18h2.9l1.2-6
	c1.2,0.7,2.5,1.1,3.9,1.1c3.2-0.1,5.7-2.7,5.6-5.8C25.2,4.2,22.7,1.7,19.6,1.7L19.6,1.7z M19.6,10.2c-1.2,0-2.3-0.5-3.2-1.3l0.3-1.1
	v0c0.2-1.2,0.8-3.3,2.9-3.3c1.6,0,2.8,1.3,2.8,2.8C22.5,8.9,21.2,10.2,19.6,10.2L19.6,10.2z"/>
</svg>
