<?xml version="1.0" encoding="utf-8"?>
<!-- Generator: Adobe Illustrator 24.1.1, SVG Export Plug-In . SVG Version: 6.00 Build 0)  -->
<svg version="1.1" id="Layer_1" xmlns="http://www.w3.org/2000/svg" xmlns:xlink="http://www.w3.org/1999/xlink" x="0px" y="0px"
	 viewBox="0 0 46.03 46.04" style="enable-background:new 0 0 46.03 46.04;" xml:space="preserve">
<style type="text/css">
	.st0{fill:#FFFFFF;}
</style>
<g>
	<g>
		<path class="st0" d="M44.48,9.07L30.53,23.02l13.95,13.95c2.08,2.07,2.08,5.44,0,7.51c-1.04,1.04-2.39,1.55-3.75,1.55
			c-1.36,0-2.72-0.52-3.76-1.55L23.02,30.53L9.07,44.49c-1.04,1.04-2.4,1.55-3.76,1.55c-1.36,0-2.72-0.52-3.75-1.55
			c-2.08-2.08-2.08-5.44,0-7.51l13.95-13.95L1.55,9.07c-2.07-2.08-2.07-5.44,0-7.52c2.07-2.07,5.44-2.07,7.51,0l13.95,13.95
			L36.97,1.56c2.07-2.07,5.44-2.07,7.51,0C46.56,3.63,46.56,6.99,44.48,9.07L44.48,9.07z M44.48,9.07"/>
	</g>
</g>
</svg>
