<?xml version="1.0" encoding="utf-8"?>
<!-- Generator: Adobe Illustrator 24.1.1, SVG Export Plug-In . SVG Version: 6.00 Build 0)  -->
<svg version="1.1" id="Layer_1" xmlns="http://www.w3.org/2000/svg" xmlns:xlink="http://www.w3.org/1999/xlink" x="0px" y="0px"
	 viewBox="0 0 26 26" style="enable-background:new 0 0 26 26;" xml:space="preserve">
<style type="text/css">
	.st0{fill:#303A52;stroke:#303A52;stroke-width:0.5;}
</style>
<path class="st0" d="M13,0.5C6.1,0.5,0.5,6.1,0.5,13S6.1,25.5,13,25.5S25.5,19.9,25.5,13C25.5,6.1,19.9,0.5,13,0.5z M21.1,6.4
	c1.4,1.8,2.3,4,2.3,6.3c-2.3-0.5-4.7-0.5-7-0.1c-0.4-0.9-0.8-1.7-1.2-2.5C17.4,9.2,19.4,8,21.1,6.4L21.1,6.4z M19.7,5
	c-1.6,1.4-3.4,2.6-5.4,3.4c-1.1-1.9-2.2-3.8-3.6-5.6C14,2.1,17.3,2.9,19.7,5L19.7,5z M8.8,3.4c1.4,1.8,2.6,3.7,3.7,5.6
	c-3.1,1-6.4,1.5-9.6,1.5C3.6,7.4,5.8,4.7,8.8,3.4z M2.5,12.6L2.5,12.6c2.2,0,4.3-0.2,6.4-0.6c1.5-0.3,3-0.7,4.5-1.1
	c0.4,0.7,0.7,1.5,1.1,2.3c-1.7,0.6-3.4,1.4-4.9,2.4c-1.7,1.2-3.2,2.6-4.6,4.2c-1.6-1.9-2.5-4.3-2.5-6.8C2.5,12.9,2.5,12.7,2.5,12.6z
	 M6.4,21.2c1.2-1.5,2.7-2.9,4.3-4c1.4-0.9,2.9-1.7,4.5-2.2c1,2.4,1.7,5,2.1,7.6C13.7,24.2,9.5,23.7,6.4,21.2L6.4,21.2z M19.2,21.5
	c-0.5-2.4-1.1-4.7-2-7c2-0.3,4.1-0.3,6.1,0.2C22.9,17.4,21.4,19.9,19.2,21.5L19.2,21.5z"/>
</svg>
