<?xml version="1.0" encoding="utf-8"?>
<!-- Generator: Adobe Illustrator 24.1.1, SVG Export Plug-In . SVG Version: 6.00 Build 0)  -->
<svg version="1.1" id="Layer_1" xmlns="http://www.w3.org/2000/svg" xmlns:xlink="http://www.w3.org/1999/xlink" x="0px" y="0px"
	 viewBox="0 0 99.2 89.6" style="enable-background:new 0 0 99.2 89.6;" xml:space="preserve">
<style type="text/css">
	.st0{fill:#23608A;}
</style>
<g>
	<path class="st0" d="M89.6,0h-80C4.32,0,0,4.32,0,9.6c0,5.28,4.32,9.6,9.6,9.6h80c5.28,0,9.6-4.32,9.6-9.6
		C99.2,4.32,94.88,0,89.6,0L89.6,0z M89.6,0"/>
	<path class="st0" d="M89.6,35.2h-80c-5.28,0-9.6,4.32-9.6,9.6c0,5.28,4.32,9.6,9.6,9.6h80c5.28,0,9.6-4.32,9.6-9.6
		C99.2,39.52,94.88,35.2,89.6,35.2L89.6,35.2z M89.6,35.2"/>
	<path class="st0" d="M89.6,70.4h-80C4.32,70.4,0,74.72,0,80c0,5.28,4.32,9.6,9.6,9.6h80c5.28,0,9.6-4.32,9.6-9.6
		C99.2,74.72,94.88,70.4,89.6,70.4L89.6,70.4z M89.6,70.4"/>
</g>
</svg>
